# xmcd CD database file
#
# Track frame offsets:
#	150
#	23715
#	48620
#	82092
#	110292
#	126372
#	144700
#	184807
#	207975
#	228052
#
# Disc length: 3741 seconds
#
# Revision: 0
# Processed by: cddbd v1.5.2PL0 Copyright (c) Steve Scherf et al.
# Submitted via: CDex 1.50
#
DISCID=8a0e9b0a
DTITLE=V A - Vedic Path
DYEAR=2005
DGENRE=New Age
TTITLE0=A R Rahman - Mumbai Theme Tune
TTITLE1=Ali Akbar Kahn and Asha Bhosle - Guru Bandana
TTITLE2=Sheila Chandra - Abonecronedrone 3 (excerpt)
TTITLE3=M Path - The Longing
TTITLE4=Ravi Shankar - tANA mANA
TTITLE5=Dissidenten - Monsoon
TTITLE6=Choying Drolma and Steve Tibbetts - Song Of Realization
TTITLE7=Stephan Micus - Passing Cloud
TTITLE8=John Wubbenhorst - All Bliss
TTITLE9=Abida Parveen - Ghoonghat Ohle Na Luk Sajn
EXTD=YEAR: 2005
EXTT0=
EXTT1=
EXTT2=
EXTT3=
EXTT4=
EXTT5=
EXTT6=
EXTT7=
EXTT8=
EXTT9=
PLAYORDER=
